<mxfile host="65bd71144e">
    <diagram id="VyNvf0lyexMPnOa72Cm8" name="Page-1">
        <mxGraphModel dx="667" dy="497" grid="1" gridSize="10" guides="1" tooltips="1" connect="1" arrows="1" fold="1" page="1" pageScale="1" pageWidth="850" pageHeight="1100" math="0" shadow="0">
            <root>
                <mxCell id="0"/>
                <mxCell id="1" parent="0"/>
                <mxCell id="2" value="new LinkedList()" style="text;html=1;strokeColor=#6c8ebf;fillColor=#dae8fc;align=center;verticalAlign=middle;whiteSpace=wrap;rounded=0;fontSize=15;" parent="1" vertex="1">
                    <mxGeometry x="80" y="80" width="120" height="40" as="geometry"/>
                </mxCell>
                <mxCell id="6" style="edgeStyle=none;html=1;exitX=1;exitY=0.5;exitDx=0;exitDy=0;entryX=0;entryY=0.5;entryDx=0;entryDy=0;fontSize=15;fontColor=#B3B3B3;strokeColor=#007FFF;" parent="1" source="3" target="5" edge="1">
                    <mxGeometry relative="1" as="geometry"/>
                </mxCell>
                <mxCell id="3" value="first" style="whiteSpace=wrap;html=1;aspect=fixed;fontSize=15;fontColor=#007FFF;strokeColor=none;" parent="1" vertex="1">
                    <mxGeometry x="240" y="80" width="40" height="40" as="geometry"/>
                </mxCell>
                <mxCell id="8" style="edgeStyle=none;html=1;exitX=1;exitY=0.5;exitDx=0;exitDy=0;entryX=0;entryY=0.5;entryDx=0;entryDy=0;fontSize=15;fontColor=#B3B3B3;strokeColor=#00CC00;" parent="1" source="4" target="7" edge="1">
                    <mxGeometry relative="1" as="geometry"/>
                </mxCell>
                <mxCell id="4" value="last" style="whiteSpace=wrap;html=1;aspect=fixed;fontSize=15;fontColor=#00CC00;strokeColor=none;" parent="1" vertex="1">
                    <mxGeometry x="400" y="80" width="40" height="40" as="geometry"/>
                </mxCell>
                <mxCell id="5" value="null" style="whiteSpace=wrap;html=1;aspect=fixed;fontSize=15;fontColor=#B3B3B3;strokeColor=none;" parent="1" vertex="1">
                    <mxGeometry x="320" y="80" width="40" height="40" as="geometry"/>
                </mxCell>
                <mxCell id="7" value="null" style="whiteSpace=wrap;html=1;aspect=fixed;fontSize=15;fontColor=#B3B3B3;strokeColor=none;" parent="1" vertex="1">
                    <mxGeometry x="480" y="80" width="40" height="40" as="geometry"/>
                </mxCell>
                <mxCell id="41" value="&lt;font color=&quot;#ff9933&quot;&gt;next&lt;/font&gt;" style="edgeStyle=none;html=1;exitX=1;exitY=0.75;exitDx=0;exitDy=0;entryX=0;entryY=0.75;entryDx=0;entryDy=0;strokeColor=#B46504;fontSize=12;fontColor=#FF99FF;fillColor=#fad7ac;" parent="1" source="9" target="11" edge="1">
                    <mxGeometry relative="1" as="geometry"/>
                </mxCell>
                <mxCell id="9" value="node" style="rounded=0;whiteSpace=wrap;html=1;fontSize=15;fillColor=#dae8fc;gradientColor=#7ea6e0;strokeColor=none;" parent="1" vertex="1">
                    <mxGeometry x="180" y="240" width="40" height="40" as="geometry"/>
                </mxCell>
                <mxCell id="30" style="edgeStyle=none;html=1;exitX=0;exitY=0.25;exitDx=0;exitDy=0;entryX=1;entryY=0.25;entryDx=0;entryDy=0;strokeColor=#9673a6;fontSize=12;fontColor=#FF99FF;fillColor=#e1d5e7;" parent="1" source="11" target="9" edge="1">
                    <mxGeometry relative="1" as="geometry"/>
                </mxCell>
                <mxCell id="33" value="prev" style="edgeLabel;html=1;align=center;verticalAlign=middle;resizable=0;points=[];fontSize=12;fontColor=#FF99FF;" parent="30" vertex="1" connectable="0">
                    <mxGeometry x="0.013" y="-1" relative="1" as="geometry">
                        <mxPoint as="offset"/>
                    </mxGeometry>
                </mxCell>
                <mxCell id="11" value="node" style="rounded=0;whiteSpace=wrap;html=1;fontSize=15;fillColor=#dae8fc;gradientColor=#7ea6e0;strokeColor=none;" parent="1" vertex="1">
                    <mxGeometry x="280" y="240" width="40" height="40" as="geometry"/>
                </mxCell>
                <mxCell id="12" value="node" style="rounded=0;whiteSpace=wrap;html=1;fontSize=15;fillColor=#dae8fc;gradientColor=#7ea6e0;strokeColor=none;" parent="1" vertex="1">
                    <mxGeometry x="380" y="240" width="40" height="40" as="geometry"/>
                </mxCell>
                <mxCell id="13" value="node" style="rounded=0;whiteSpace=wrap;html=1;fontSize=15;fillColor=#dae8fc;gradientColor=#7ea6e0;strokeColor=none;" parent="1" vertex="1">
                    <mxGeometry x="480" y="240" width="40" height="40" as="geometry"/>
                </mxCell>
                <mxCell id="36" style="edgeStyle=none;html=1;exitX=0;exitY=0.25;exitDx=0;exitDy=0;entryX=1;entryY=0.25;entryDx=0;entryDy=0;strokeColor=#9673a6;fontSize=12;fontColor=#FF99FF;fillColor=#e1d5e7;" parent="1" edge="1">
                    <mxGeometry relative="1" as="geometry">
                        <mxPoint x="380" y="250" as="sourcePoint"/>
                        <mxPoint x="320" y="250" as="targetPoint"/>
                    </mxGeometry>
                </mxCell>
                <mxCell id="37" value="prev" style="edgeLabel;html=1;align=center;verticalAlign=middle;resizable=0;points=[];fontSize=12;fontColor=#FF99FF;" parent="36" vertex="1" connectable="0">
                    <mxGeometry x="0.013" y="-1" relative="1" as="geometry">
                        <mxPoint as="offset"/>
                    </mxGeometry>
                </mxCell>
                <mxCell id="38" style="edgeStyle=none;html=1;exitX=0;exitY=0.25;exitDx=0;exitDy=0;entryX=1;entryY=0.25;entryDx=0;entryDy=0;strokeColor=#9673a6;fontSize=12;fontColor=#FF99FF;fillColor=#e1d5e7;" parent="1" edge="1">
                    <mxGeometry relative="1" as="geometry">
                        <mxPoint x="180" y="250" as="sourcePoint"/>
                        <mxPoint x="120" y="250" as="targetPoint"/>
                    </mxGeometry>
                </mxCell>
                <mxCell id="39" value="prev" style="edgeLabel;html=1;align=center;verticalAlign=middle;resizable=0;points=[];fontSize=12;fontColor=#FF99FF;" parent="38" vertex="1" connectable="0">
                    <mxGeometry x="0.013" y="-1" relative="1" as="geometry">
                        <mxPoint as="offset"/>
                    </mxGeometry>
                </mxCell>
                <mxCell id="40" value="null" style="whiteSpace=wrap;html=1;aspect=fixed;fontSize=15;fontColor=#B3B3B3;strokeColor=none;" parent="1" vertex="1">
                    <mxGeometry x="80" y="230" width="40" height="40" as="geometry"/>
                </mxCell>
                <mxCell id="44" value="null" style="whiteSpace=wrap;html=1;aspect=fixed;fontSize=15;fontColor=#B3B3B3;strokeColor=none;" parent="1" vertex="1">
                    <mxGeometry x="580" y="250" width="40" height="40" as="geometry"/>
                </mxCell>
                <mxCell id="47" value="&lt;font color=&quot;#ff9933&quot;&gt;next&lt;/font&gt;" style="edgeStyle=none;html=1;exitX=1;exitY=0.75;exitDx=0;exitDy=0;entryX=0;entryY=0.75;entryDx=0;entryDy=0;strokeColor=#B46504;fontSize=12;fontColor=#FF99FF;fillColor=#fad7ac;" parent="1" edge="1">
                    <mxGeometry relative="1" as="geometry">
                        <mxPoint x="320" y="270" as="sourcePoint"/>
                        <mxPoint x="380" y="270" as="targetPoint"/>
                    </mxGeometry>
                </mxCell>
                <mxCell id="48" value="&lt;font color=&quot;#ff9933&quot;&gt;next&lt;/font&gt;" style="edgeStyle=none;html=1;exitX=1;exitY=0.75;exitDx=0;exitDy=0;entryX=0;entryY=0.75;entryDx=0;entryDy=0;strokeColor=#B46504;fontSize=12;fontColor=#FF99FF;fillColor=#fad7ac;" parent="1" edge="1">
                    <mxGeometry relative="1" as="geometry">
                        <mxPoint x="420" y="270" as="sourcePoint"/>
                        <mxPoint x="480" y="270" as="targetPoint"/>
                    </mxGeometry>
                </mxCell>
                <mxCell id="49" value="&lt;font color=&quot;#ff9933&quot;&gt;next&lt;/font&gt;" style="edgeStyle=none;html=1;exitX=1;exitY=0.75;exitDx=0;exitDy=0;entryX=0;entryY=0.75;entryDx=0;entryDy=0;strokeColor=#B46504;fontSize=12;fontColor=#FF99FF;fillColor=#fad7ac;" parent="1" edge="1">
                    <mxGeometry relative="1" as="geometry">
                        <mxPoint x="520" y="270" as="sourcePoint"/>
                        <mxPoint x="580" y="270" as="targetPoint"/>
                    </mxGeometry>
                </mxCell>
                <mxCell id="50" value="first" style="whiteSpace=wrap;html=1;aspect=fixed;fontSize=15;fontColor=#007FFF;strokeColor=none;" parent="1" vertex="1">
                    <mxGeometry x="180" y="170" width="40" height="40" as="geometry"/>
                </mxCell>
                <mxCell id="51" value="last" style="whiteSpace=wrap;html=1;aspect=fixed;fontSize=15;fontColor=#00CC00;strokeColor=none;" parent="1" vertex="1">
                    <mxGeometry x="480" y="170" width="40" height="40" as="geometry"/>
                </mxCell>
                <mxCell id="53" style="edgeStyle=none;html=1;exitX=0.5;exitY=1;exitDx=0;exitDy=0;entryX=0.5;entryY=0;entryDx=0;entryDy=0;fontSize=15;fontColor=#B3B3B3;strokeColor=#007FFF;" parent="1" edge="1">
                    <mxGeometry relative="1" as="geometry">
                        <mxPoint x="200" y="203" as="sourcePoint"/>
                        <mxPoint x="200" y="233" as="targetPoint"/>
                    </mxGeometry>
                </mxCell>
                <mxCell id="54" style="edgeStyle=none;html=1;exitX=0.5;exitY=1;exitDx=0;exitDy=0;entryX=0.5;entryY=0;entryDx=0;entryDy=0;fontSize=15;fontColor=#B3B3B3;strokeColor=#00CC00;" parent="1" edge="1">
                    <mxGeometry relative="1" as="geometry">
                        <mxPoint x="500" y="204" as="sourcePoint"/>
                        <mxPoint x="500" y="234" as="targetPoint"/>
                    </mxGeometry>
                </mxCell>
                <mxCell id="55" style="edgeStyle=none;html=1;exitX=0;exitY=0.25;exitDx=0;exitDy=0;entryX=1;entryY=0.25;entryDx=0;entryDy=0;strokeColor=#9673a6;fontSize=12;fontColor=#FF99FF;fillColor=#e1d5e7;" parent="1" edge="1">
                    <mxGeometry relative="1" as="geometry">
                        <mxPoint x="480" y="251" as="sourcePoint"/>
                        <mxPoint x="420" y="251" as="targetPoint"/>
                    </mxGeometry>
                </mxCell>
                <mxCell id="56" value="prev" style="edgeLabel;html=1;align=center;verticalAlign=middle;resizable=0;points=[];fontSize=12;fontColor=#FF99FF;" parent="55" vertex="1" connectable="0">
                    <mxGeometry x="0.013" y="-1" relative="1" as="geometry">
                        <mxPoint as="offset"/>
                    </mxGeometry>
                </mxCell>
                <mxCell id="57" value="" style="line;strokeWidth=2;html=1;strokeColor=none;" vertex="1" parent="1">
                    <mxGeometry x="80" y="40" width="540" height="10" as="geometry"/>
                </mxCell>
                <mxCell id="58" value="" style="line;strokeWidth=2;html=1;strokeColor=none;" vertex="1" parent="1">
                    <mxGeometry x="80" y="310" width="540" height="10" as="geometry"/>
                </mxCell>
            </root>
        </mxGraphModel>
    </diagram>
</mxfile>